<?xml version="1.0" encoding="UTF-8" standalone="no"?>
<svg
   xmlns:dc="http://purl.org/dc/elements/1.1/"
   xmlns:cc="http://creativecommons.org/ns#"
   xmlns:rdf="http://www.w3.org/1999/02/22-rdf-syntax-ns#"
   xmlns:svg="http://www.w3.org/2000/svg"
   xmlns="http://www.w3.org/2000/svg"
   xmlns:sodipodi="http://sodipodi.sourceforge.net/DTD/sodipodi-0.dtd"
   xmlns:inkscape="http://www.inkscape.org/namespaces/inkscape"
   xml:space="preserve"
   style="enable-background:new 0 0 512 512;"
   viewBox="0 0 512 512"
   y="0px"
   x="0px"
   id="Layer_1"
   version="1.1"
   sodipodi:docname="logo.svg"
   inkscape:version="0.92.2 (5c3e80d, 2017-08-06)"><sodipodi:namedview
     pagecolor="#ffffff"
     bordercolor="#666666"
     borderopacity="1"
     objecttolerance="10"
     gridtolerance="10"
     guidetolerance="10"
     inkscape:pageopacity="0"
     inkscape:pageshadow="2"
     inkscape:window-width="1366"
     inkscape:window-height="705"
     id="namedview842"
     showgrid="false"
     inkscape:zoom="0.16434708"
     inkscape:cx="-397.96641"
     inkscape:cy="467.76816"
     inkscape:window-x="-8"
     inkscape:window-y="-8"
     inkscape:window-maximized="1"
     inkscape:current-layer="Layer_1" /><metadata
     id="metadata3801"><rdf:RDF><cc:Work
         rdf:about=""><dc:format>image/svg+xml</dc:format><dc:type
           rdf:resource="http://purl.org/dc/dcmitype/StillImage" /><dc:title /></cc:Work></rdf:RDF></metadata><defs
     id="defs3799" /><path
     style="fill:none;stroke:#969696;stroke-width:49.94893646;stroke-linecap:round;stroke-linejoin:miter;stroke-miterlimit:4;stroke-dasharray:none;stroke-opacity:1"
     d="M 485.9477,25.293161 255.13498,486.70715"
     id="path844-7"
     inkscape:connector-curvature="0" /><g
     id="g3764"
     transform="matrix(0.78124981,0,0,0.78125,56,37)"><circle
       id="circle3752"
       r="256"
       cy="256"
       cx="256"
       style="fill:#311b92;fill-opacity:1" /><path
       id="path3754"
       d="m 512,256 c 0,-51.363 -15.124,-99.191 -41.165,-139.275 0,0 -14.604,21.334 -11.86,35.047 2.742,13.715 18.855,14.762 17.2,24.822 -1.655,10.06 -13.541,-2.879 -28.172,23.633 -14.63,26.514 -7.312,63.096 13.714,65.834 C 482.744,268.797 512,256 512,256 Z"
       style="fill:#81c784;fill-opacity:1"
       inkscape:connector-curvature="0" /><path
       id="path3756"
       d="m 323.23,8.92 c 29.797,8.088 57.434,21.424 81.857,38.951 0,0 -29.684,-4.896 -40.929,5.158 -11.244,10.057 -27.643,33.832 -40.929,0 C 309.945,19.199 323.23,8.92 323.23,8.92 Z"
       style="fill:#81c784;fill-opacity:1"
       inkscape:connector-curvature="0" /><path
       id="path3758"
       d="M 63.519,87.219 C 110.437,33.754 179.275,0 256,0 c 0,0 -17.368,10.516 15.546,28.344 32.915,17.83 17.828,26.057 10.971,31.543 C 275.661,65.373 263.768,48.916 256,37.946 248.231,26.973 214.868,10.061 189.266,19.206 c -25.601,9.145 -47.539,15.9 -43.885,24.408 3.653,8.506 47.539,-7.945 63.996,-7.035 16.457,0.912 10.971,10.967 -4.569,22.854 -15.542,11.887 -17.374,26.514 -0.916,35.656 16.456,9.146 36.566,10.061 41.143,4.576 4.574,-5.486 -8.229,-41.143 22.858,-25.602 31.087,15.541 56.688,24.691 31.087,47.545 -25.602,22.852 -54.857,48.461 -55.773,63.084 -0.916,14.625 9.146,26.52 3.66,27.43 -5.486,0.91 -10.521,-5.941 -14.176,-10.973 -3.653,-5.029 -20.571,-6.855 -28.799,-3.658 -8.229,3.197 -23.774,15.541 -15.086,27.428 8.689,11.889 20.565,6.396 32.454,11.883 11.887,5.486 22.972,26.365 20.696,31.084 -2.276,4.717 -12.409,-1.256 -20.696,-17.369 -8.289,-16.115 -23.835,-5.486 -34.773,-8.229 -10.939,-2.742 -19.168,-4.57 -30.14,-23.771 C 145.375,199.318 122.66,193.945 113.378,182.861 86.789,151.111 88.691,127.09 83.206,116.119 77.72,105.145 63.519,87.219 63.519,87.219 Z"
       style="fill:#81c784;fill-opacity:1"
       inkscape:connector-curvature="0" /><path
       id="path3760"
       d="m 280.685,259.658 c 0,0 27.429,2.738 41.143,14.627 13.714,11.887 15.546,16.461 36.573,21.031 21.027,4.568 30.172,16.451 16.457,39.311 -13.714,22.857 -38.404,59.43 -50.287,70.402 -11.882,10.973 -26.512,20.115 -31.998,38.4 -5.485,18.283 -7.317,29.248 4.57,36.568 0,0 -6.396,15.545 -21.026,-4.57 -14.631,-20.117 -2.744,-43.885 0,-57.6 2.742,-13.713 10.055,-54.852 5.484,-64.914 -4.568,-10.059 -25.601,-16.461 -31.087,-37.486 -5.486,-21.026 4.115,-61.944 30.171,-55.769 z"
       style="fill:#81c784;fill-opacity:1"
       inkscape:connector-curvature="0" /><path
       id="path3762"
       d="m 74.98,74.983 c 99.975,-99.977 262.062,-99.975 362.038,0 99.976,99.973 99.976,262.062 0.001,362.037 0,0 116.148,-153.59 -48.293,-318.031 C 224.284,-45.453 74.98,74.983 74.98,74.983 Z"
       style="opacity:0.6;fill:#0f0c1a;fill-opacity:1;enable-background:new"
       inkscape:connector-curvature="0" /></g><g
     id="g3766" /><g
     id="g3768" /><g
     id="g3770" /><g
     id="g3772" /><g
     id="g3774" /><g
     id="g3776" /><g
     id="g3778" /><g
     id="g3780" /><g
     id="g3782" /><g
     id="g3784" /><g
     id="g3786" /><g
     id="g3788" /><g
     id="g3790" /><g
     id="g3792" /><g
     id="g3794" /><path
     style="fill:none;stroke:#c8c8c8;stroke-width:49.575;stroke-linecap:round;stroke-linejoin:miter;stroke-miterlimit:4;stroke-dasharray:none;stroke-opacity:1"
     d="M 24.946312,25.103012 255.05051,486.89627"
     id="path844"
     inkscape:connector-curvature="0" /></svg>