<svg id="icons" xmlns="http://www.w3.org/2000/svg" viewBox="0 0 128 128"><defs><style>.Graphic-Style-5{fill:#fecd43;}.cls-1{fill:#e89836;}.cls-2{fill:#fff;}.cls-3{fill:none;stroke:#3d344c;stroke-linecap:round;stroke-linejoin:round;stroke-width:4px;}.cls-4{fill:#3d344c;}</style></defs><title>farm-house</title><polygon class="Graphic-Style-5" points="118 102 118 118 110 118 110 111 102 111 102 118 26 118 26 111 18 111 18 118 10 118 10 102 14 96 18 102 18 103 26 103 26 102 30 96 34 102 34 68 64 38 78 52 78 38 90 38 90 64 94 68 94 102 98 96 102 102 102 103 110 103 110 102 114 96 118 102"/><path class="cls-1" d="M50.641,51.359c-2.83-2.711-5.755-5.4-9.938-4.826-4.933.682-6.887,7-4.911,11.038a2.234,2.234,0,0,0,2.471,1.005c1.384-.243,4.287-1.233,5.829-.669L34,68V85.09c.71-.42,1.43-.89,2.19-1.41A54,54,0,0,1,44.85,79c4.22-1.87,9.22-4.04,11.07-8.63a11.043,11.043,0,0,0,.5-6c-.61-3.69-.81-7.76,3.46-9.18a32.888,32.888,0,0,0,4.83-1.59c3.38-1.75,5.25-5.23,5.93-8.96L64,38Z"/><path class="cls-1" d="M114,96l-4,6v1h-8v-1l-4-6-4,6V89.71a18.5,18.5,0,0,0-4.77,2.68,7.987,7.987,0,0,0-2.72,3.98c-.95,3.16.79,6.71-1.41,9.44-1.9,2.36-4.82,3.51-6.28,6.34A10.344,10.344,0,0,0,77.8,118H102v-7h8v7h8V102Z"/><path class="cls-2" d="M57.21,105.94c-3.96-.41-7.72,1.48-11.72,1.3-3.54-.16-6.43-.64-9.79.74a37.61,37.61,0,0,0-9.7,6.19V118H65.79C66.04,112.09,64.91,106.72,57.21,105.94Z"/><polyline class="cls-3" points="94 68 94 118 34 118 34 68"/><line class="cls-3" x1="44.1" y1="57.9" x2="22" y2="80"/><polyline class="cls-3" points="50.64 51.36 50.65 51.36 64 38 106 80"/><rect class="cls-3" x="53" y="88" width="20" height="30"/><polygon class="cls-3" points="90 38 90 64 78 52 78 38 90 38"/><line class="cls-3" x1="10" y1="118" x2="118" y2="118"/><polygon class="cls-3" points="118 118 110 118 110 102 114 96 118 102 118 118"/><polygon class="cls-3" points="102 118 94 118 94 102 98 96 102 102 102 118"/><rect class="cls-3" x="102" y="103" width="8" height="8"/><polygon class="cls-3" points="34 118 26 118 26 102 30 96 34 102 34 118"/><polygon class="cls-3" points="18 118 10 118 10 102 14 96 18 102 18 118"/><rect class="cls-3" x="18" y="103" width="8" height="8"/><path class="cls-1" d="M29.344,57.021c-5.354-.58-5.105-6.851-.9-4.146S31.567,57.262,29.344,57.021Z"/><path class="cls-4" d="M47,10c.408,5.616,4.451,9.275,9.836,10.419,8.427,1.79,20.06-2.214,22.155,9.612.448,2.53,4.3,1.458,3.857-1.063-.951-5.366-4.315-9.687-9.636-11.259C66.823,15.82,51.725,19.961,51,10c-.186-2.552-4.187-2.573-4,0Z"/><path class="cls-4" d="M88.83,23.491c-2.466-5.006,3.571-5.021,6.942-5.426a22.833,22.833,0,0,0,6-1.189,10.905,10.905,0,0,0,6.157-6.844c.854-2.434-3.009-3.481-3.857-1.063-2.528,7.208-11.19,3.962-16.63,6.431-4.2,1.908-3.8,6.592-2.066,10.11,1.137,2.309,4.588.285,3.454-2.019Z"/><circle class="cls-4" cx="67" cy="104" r="2"/></svg>
